<?xml version="1.0" encoding="UTF-8"?>
<!DOCTYPE svg PUBLIC "-//W3C//DTD SVG 1.1//EN" "http://www.w3.org/Graphics/SVG/1.1/DTD/svg11.dtd">
<!-- Creator: CorelDRAW 2021 (64-Bit) -->
<svg xmlns="http://www.w3.org/2000/svg" xml:space="preserve" width="55px" height="55px" version="1.1" shape-rendering="geometricPrecision" text-rendering="geometricPrecision" image-rendering="optimizeQuality" fill-rule="evenodd" clip-rule="evenodd"
viewBox="0 0 8.84 8.89"
 xmlns:xlink="http://www.w3.org/1999/xlink"
 xmlns:xodm="http://www.corel.com/coreldraw/odm/2003">
 <defs>
   <linearGradient id="id0" gradientUnits="userSpaceOnUse" x1="1.66" y1="5.78" x2="9.71" y2="2.2">
    <stop offset="0" stop-opacity="1" stop-color="#3DA1F2"/>
    <stop offset="1" stop-opacity="1" stop-color="#3AE8A8"/>
   </linearGradient>
 </defs>
 <g id="Layer_x0020_1">
  <metadata id="CorelCorpID_0Corel-Layer"/>
  <path fill="url(#id0)" fill-rule="nonzero" d="M7.69 8.89l-1.8 0 -0.16 -0.72 0 0 0 -0.03 -0.21 -0.93 -1.14 0.75 -1.13 -0.75 -0.01 0 -0.36 1.68 -1.8 0 0 -0.02 0.44 -1.66 -1.52 0 0 -1.14 1.83 0 1.61 -6.07 1.91 0 1.6 6.07 1.89 0 0 1.14 -1.59 0 0.44 1.68zm-2.42 -2.82l-0.49 -2.17 -0.4 -1.84 -0.89 4.01 0 0 0 0.01 0.89 0.66 0.86 -0.67 0.03 0z"/>
 </g>
</svg>
